name C:\Users\antoi\Documents\MyRepositories\upper-imu-dc\Results\main_tracking\Case_79\ABD01_angularVelocities_bodyFrame.mot
datacolumns 4
datarows 117
range 6.26000000 7.42000000
endheader 
time	radius_imu_x	radius_imu_y	radius_imu_z	
          6.26000000	         -0.55243125	         -0.35738069	          0.32312958	
          6.27000000	         -0.55132675	         -0.35398347	          0.33031119	
          6.28000000	         -0.55052236	         -0.34980293	          0.33703311	
          6.29000000	         -0.54993120	         -0.34490254	          0.34317407	
          6.30000000	         -0.54946963	         -0.33936734	          0.34861837	
          6.31000000	         -0.54905742	         -0.33330082	          0.35325807	
          6.32000000	         -0.54861663	         -0.32681774	          0.35699263	
          6.33000000	         -0.54807040	         -0.32003449	          0.35972767	
          6.34000000	         -0.54734215	         -0.31306660	          0.36137449	
          6.35000000	         -0.54635565	         -0.30602961	          0.36185130	
          6.36000000	         -0.54503687	         -0.29904605	          0.36108646	
          6.37000000	         -0.54331759	         -0.29228132	          0.35902471	
          6.38000000	         -0.54113792	         -0.28593327	          0.35563273	
          6.39000000	         -0.53844721	         -0.28017314	          0.35090518	
          6.40000000	         -0.53521408	         -0.27512016	          0.34486325	
          6.41000000	         -0.53143098	         -0.27086692	          0.33755876	
          6.42000000	         -0.52710145	         -0.26736058	          0.32907877	
          6.43000000	         -0.52225877	         -0.26451003	          0.31952977	
          6.44000000	         -0.51696347	         -0.26228588	          0.30902777	
          6.45000000	         -0.51128078	         -0.26053509	          0.29766487	
          6.46000000	         -0.50528975	         -0.25920116	          0.28553304	
          6.47000000	         -0.49906764	         -0.25838194	          0.27278528	
          6.48000000	         -0.49267402	         -0.25777202	          0.25954490	
          6.49000000	         -0.48614226	         -0.25725861	          0.24598716	
          6.50000000	         -0.47949136	         -0.25679941	          0.23231867	
          6.51000000	         -0.47278402	         -0.25633465	          0.21871323	
          6.52000000	         -0.46609521	         -0.25604185	          0.20536396	
          6.53000000	         -0.45950498	         -0.25609756	          0.19246769	
          6.54000000	         -0.45309412	         -0.25658998	          0.18020610	
          6.55000000	         -0.44693364	         -0.25753487	          0.16874386	
          6.56000000	         -0.44107250	         -0.25892898	          0.15823176	
          6.57000000	         -0.43553210	         -0.26093671	          0.14881269	
          6.58000000	         -0.43030808	         -0.26373437	          0.14060540	
          6.59000000	         -0.42537098	         -0.26740319	          0.13369616	
          6.60000000	         -0.42066742	         -0.27197909	          0.12814877	
          6.61000000	         -0.41612761	         -0.27755894	          0.12401153	
          6.62000000	         -0.41168555	         -0.28419560	          0.12127619	
          6.63000000	         -0.40727756	         -0.29186503	          0.11988667	
          6.64000000	         -0.40281016	         -0.30056762	          0.11981137	
          6.65000000	         -0.39818797	         -0.31019475	          0.12098502	
          6.66000000	         -0.39334981	         -0.32056972	          0.12327265	
          6.67000000	         -0.38824712	         -0.33161676	          0.12651705	
          6.68000000	         -0.38284291	         -0.34325237	          0.13054218	
          6.69000000	         -0.37711250	         -0.35527118	          0.13514909	
          6.70000000	         -0.37103810	         -0.36745313	          0.14012797	
          6.71000000	         -0.36461026	         -0.37959302	          0.14526739	
          6.72000000	         -0.35782774	         -0.39148147	          0.15036040	
          6.73000000	         -0.35069496	         -0.40290536	          0.15521109	
          6.74000000	         -0.34321756	         -0.41364943	          0.15964171	
          6.75000000	         -0.33539982	         -0.42349696	          0.16349844	
          6.76000000	         -0.32724155	         -0.43223742	          0.16665427	
          6.77000000	         -0.31873559	         -0.43968236	          0.16901260	
          6.78000000	         -0.30986953	         -0.44565906	          0.17050919	
          6.79000000	         -0.30063062	         -0.45000856	          0.17111243	
          6.80000000	         -0.29101129	         -0.45259485	          0.17082361	
          6.81000000	         -0.28101353	         -0.45330777	          0.16967410	
          6.82000000	         -0.27065217	         -0.45206363	          0.16771913	
          6.83000000	         -0.25995617	         -0.44878269	          0.16502760	
          6.84000000	         -0.24896708	         -0.44339164	          0.16167146	
          6.85000000	         -0.23773232	         -0.43582209	          0.15771405	
          6.86000000	         -0.22629502	         -0.42602160	          0.15320466	
          6.87000000	         -0.21469044	         -0.41398615	          0.14818209	
          6.88000000	         -0.20294500	         -0.39967553	          0.14266684	
          6.89000000	         -0.19107038	         -0.38301868	          0.13666238	
          6.90000000	         -0.17905853	         -0.36397841	          0.13017143	
          6.91000000	         -0.16690203	         -0.34255378	          0.12319360	
          6.92000000	         -0.15460645	         -0.31879374	          0.11572736	
          6.93000000	         -0.14219611	         -0.29293026	          0.10778205	
          6.94000000	         -0.12969913	         -0.26524502	          0.09938323	
          6.95000000	         -0.11710696	         -0.23584804	          0.09058424	
          6.96000000	         -0.10440856	         -0.20488137	          0.08144608	
          6.97000000	         -0.09160860	         -0.17264035	          0.07203063	
          6.98000000	         -0.07871125	         -0.13941205	          0.06238535	
          6.99000000	         -0.06570365	         -0.10545680	          0.05252889	
          7.00000000	         -0.05253870	         -0.07101138	          0.04245993	
          7.01000000	         -0.03912942	         -0.03623539	          0.03214337	
          7.02000000	         -0.02534072	         -0.00121302	          0.02150017	
          7.03000000	         -0.01098953	          0.03396382	          0.01041902	
          7.04000000	          0.00414574	          0.06920244	         -0.00123416	
          7.05000000	          0.02031408	          0.10440341	         -0.01360921	
          7.06000000	          0.03777613	          0.13944694	         -0.02685498	
          7.07000000	          0.05678582	          0.17417810	         -0.04109434	
          7.08000000	          0.07757047	          0.20839612	         -0.05642320	
          7.09000000	          0.10031539	          0.24182736	         -0.07290708	
          7.10000000	          0.12515168	          0.27414000	         -0.09057094	
          7.11000000	          0.15214627	          0.30495729	         -0.10939690	
          7.12000000	          0.18130199	          0.33387795	         -0.12932670	
          7.13000000	          0.21255627	          0.36050675	         -0.15026541	
          7.14000000	          0.24578784	          0.38442692	         -0.17208122	
          7.15000000	          0.28082716	          0.40526366	         -0.19461420	
          7.16000000	          0.31747029	          0.42270868	         -0.21768521	
          7.17000000	          0.35549055	          0.43650532	         -0.24109160	
          7.18000000	          0.39465560	          0.44662056	         -0.26459873	
          7.19000000	          0.43473232	          0.45311511	         -0.28795395	
          7.20000000	          0.47547008	          0.45604978	         -0.31091514	
          7.21000000	          0.51662048	          0.45561758	         -0.33323494	
          7.22000000	          0.55795420	          0.45210614	         -0.35465924	
          7.23000000	          0.59924981	          0.44585266	         -0.37494105	
          7.24000000	          0.64029915	          0.43720392	         -0.39384949	
          7.25000000	          0.68090741	          0.42650856	         -0.41117729	
          7.26000000	          0.72088887	          0.41410442	         -0.42673421	
          7.27000000	          0.76006391	          0.40029209	         -0.44035031	
          7.28000000	          0.79825536	          0.38538879	         -0.45188613	
          7.29000000	          0.83528389	          0.36968469	         -0.46123417	
          7.30000000	          0.87096208	          0.35342522	         -0.46832245	
          7.31000000	          0.90509152	          0.33684753	         -0.47311712	
          7.32000000	          0.93746530	          0.32015819	         -0.47561836	
          7.33000000	          0.96787343	          0.30355129	         -0.47585827	
          7.34000000	          0.99611158	          0.28721734	         -0.47389582	
          7.35000000	          1.02199190	          0.27132863	         -0.46980916	
          7.36000000	          1.04535480	          0.25606315	         -0.46369120	
          7.37000000	          1.06608048	          0.24160901	         -0.45564655	
          7.38000000	          1.08409918	          0.22816392	         -0.44579023	
          7.39000000	          1.09939704	          0.21593724	         -0.43425030	
          7.40000000	          1.11201976	          0.20514053	         -0.42117069	
          7.41000000	          1.12207483	          0.19598518	         -0.40671286	
          7.42000000	          1.12972782	          0.18867678	         -0.39105881	
